<svg width="849" height="250" viewBox="0 0 849 250" fill="none" xmlns="http://www.w3.org/2000/svg">
<g clip-path="url(#clip0_17_162)">
<path d="M408.296 31.1126H444.938V41.5817H408.296V31.1126Z" fill="#F1F1F1"/>
<path fill-rule="evenodd" clip-rule="evenodd" d="M247.595 234.58C315.533 234.58 370.608 183.021 370.608 119.42C370.608 55.8184 315.533 4.25926 247.595 4.25926C179.658 4.25926 124.583 55.8184 124.583 119.42C124.583 183.021 179.658 234.58 247.595 234.58ZM246.025 176.9C280.428 176.9 308.316 150.791 308.316 118.584C308.316 86.3778 280.428 60.2691 246.025 60.2691C211.622 60.2691 183.734 86.3778 183.734 118.584C183.734 150.791 211.622 176.9 246.025 176.9Z" fill="#F1F1F1"/>
<path d="M238.173 53.9877L227.704 61.8395C206.766 82.7778 183.21 132.506 227.704 174.383L235.556 182.235M256.494 53.9877L265.232 61.8395C286.17 82.7778 309.726 132.506 265.232 174.383L259.111 179.617M246.025 59.2222V179.617M248.642 51.3704L240.79 59.2222C222.469 74.9259 214.618 142.975 238.173 177L243.408 182.235M240.79 51.3704L251.26 59.2222C269.581 74.9259 277.432 142.975 253.877 177L248.642 182.235" stroke="#F1F1F1" stroke-width="5.23457"/>
<path d="M183.21 119.42H308.839M295.753 67.0741L285.284 72.3086C253.877 82.7778 235.556 80.1605 206.765 72.3086L188.444 64.4568M206.765 166.531C235.556 158.679 253.877 156.062 285.284 166.531M188.444 88.0124C225.086 103.716 264.346 106.333 306.222 88.0124M188.444 152.398C225.086 136.694 264.346 134.077 306.222 152.398" stroke="#F1F1F1" stroke-width="5.23457"/>
<path d="M326.343 221.494V31.1459H408.505C422.632 31.1459 434.993 33.7173 445.589 38.8602C456.184 44.0031 464.425 51.4075 470.312 61.0737C476.198 70.7398 479.141 82.3267 479.141 95.8345C479.141 109.466 476.105 120.96 470.033 130.316C464.023 139.673 455.565 146.736 444.66 151.508C433.816 156.279 421.145 158.664 406.646 158.664H357.572V118.513H396.236C402.308 118.513 407.482 117.769 411.758 116.282C416.095 114.733 419.41 112.285 421.703 108.939C424.057 105.594 425.234 101.225 425.234 95.8345C425.234 90.3818 424.057 85.9515 421.703 82.5436C419.41 79.0737 416.095 76.5332 411.758 74.9222C407.482 73.2492 402.308 72.4127 396.236 72.4127H378.019V221.494H326.343ZM437.875 134.127L485.462 221.494H429.324L382.852 134.127H437.875Z" fill="#F1F1F1"/>
<path d="M443.619 72.7845V31.1459H609.058V72.7845H551.805V221.494H500.872V72.7845H443.619Z" fill="#F1F1F1"/>
<path d="M601.58 221.494H545.814L608.644 31.1459H679.281L742.111 221.494H686.345L644.706 83.5659H643.219L601.58 221.494ZM591.171 146.396H696.011V185.06H591.171V146.396Z" fill="#F1F1F1"/>
<path d="M708.098 221.494V31.1459H759.775V179.855H836.732V221.494H708.098Z" fill="#F1F1F1"/>
<path d="M12.2686 221.494V31.1459H94.4305C108.558 31.1459 120.919 33.9342 131.515 39.5108C142.11 45.0874 150.351 52.9256 156.238 63.0255C162.124 73.1253 165.067 84.9291 165.067 98.4369C165.067 112.069 162.031 123.872 155.959 133.848C149.949 143.824 141.491 151.508 130.585 156.898C119.742 162.289 107.071 164.984 92.5716 164.984H43.4975V124.833H82.1619C88.2342 124.833 93.4081 123.779 97.6835 121.673C102.021 119.504 105.336 116.437 107.628 112.471C109.983 108.506 111.16 103.828 111.16 98.4369C111.16 92.9842 109.983 88.337 107.628 84.4954C105.336 80.5917 102.021 77.6176 97.6835 75.5728C93.4081 73.4661 88.2342 72.4127 82.1619 72.4127H63.945V221.494H12.2686Z" fill="#F1F1F1"/>
</g>
<defs>
<clipPath id="clip0_17_162">
<rect width="848.958" height="250" fill="white"/>
</clipPath>
</defs>
</svg>
