<svg width="163" height="48" viewBox="0 0 163 48" fill="none" xmlns="http://www.w3.org/2000/svg">
<g clip-path="url(#clip0_1_13)">
<path d="M79 6.63H86V8.63H79V6.63Z" fill="white"/>
<path d="M63.3438 43V6.63636H79.0398C81.7386 6.63636 84.1001 7.1276 86.1243 8.11008C88.1484 9.09257 89.7228 10.5071 90.8473 12.3537C91.9718 14.2003 92.5341 16.4138 92.5341 18.9943C92.5341 21.5985 91.9541 23.7943 90.794 25.5817C89.6458 27.3691 88.0301 28.7185 85.9467 29.63C83.8752 30.5414 81.4545 30.9972 78.6847 30.9972H69.3097V23.3267H76.696C77.8561 23.3267 78.8445 23.1847 79.6612 22.9006C80.4898 22.6046 81.1231 22.1371 81.5611 21.4979C82.0109 20.8587 82.2358 20.0241 82.2358 18.9943C82.2358 17.9527 82.0109 17.1063 81.5611 16.4553C81.1231 15.7924 80.4898 15.3071 79.6612 14.9993C78.8445 14.6797 77.8561 14.5199 76.696 14.5199H73.2159V43H63.3438ZM84.6506 26.3097L93.7415 43H83.017L74.1392 26.3097H84.6506ZM85.7479 14.5909V6.63636H117.353V14.5909H106.415V43H96.6854V14.5909H85.7479ZM115.925 43H105.271L117.274 6.63636H130.768L142.771 43H132.118L124.163 16.6506H123.879L115.925 43ZM113.936 28.6534H133.964V36.0398H113.936V28.6534ZM136.273 43V6.63636H146.146V35.0455H160.847V43H136.273Z" fill="white"/>
<path fill-rule="evenodd" clip-rule="evenodd" d="M48.3 45.5C61.2787 45.5 71.8 35.6503 71.8 23.5C71.8 11.3497 61.2787 1.5 48.3 1.5C35.3213 1.5 24.8 11.3497 24.8 23.5C24.8 35.6503 35.3213 45.5 48.3 45.5ZM48 34.4809C54.5722 34.4809 59.9 29.4931 59.9 23.3404C59.9 17.1877 54.5722 12.2 48 12.2C41.4278 12.2 36.1 17.1877 36.1 23.3404C36.1 29.4931 41.4278 34.4809 48 34.4809Z" fill="white"/>
<path d="M46.5 11L44.5 12.5C40.5 16.5 36 26 44.5 34L46 35.5" stroke="white"/>
<path d="M50 11L51.6693 12.5C55.6693 16.5 60.1693 26 51.6693 34L50.5 35" stroke="white"/>
<path d="M48 12V35M48.5 10.5L47 12C43.5 15 42 28 46.5 34.5L47.5 35.5" stroke="white"/>
<path d="M47 10.5L49 12C52.5 15 54 28 49.5 34.5L48.5 35.5" stroke="white"/>
<path d="M36 23.5H60" stroke="white"/>
<path d="M57.5 13.5L55.5 14.5C49.5 16.5 46 16 40.5 14.5L37 13" stroke="white"/>
<path d="M40.5 32.5C46 31 49.5 30.5 55.5 32.5" stroke="white"/>
<path d="M37 17.5C44 20.5 51.5 21 59.5 17.5" stroke="white"/>
<path d="M37 29.8C44 26.8 51.5 26.3 59.5 29.8" stroke="white"/>
<path d="M3.34375 43V6.63636H19.0398C21.7386 6.63636 24.1001 7.16903 26.1243 8.23438C28.1484 9.29971 29.7228 10.7971 30.8473 12.7266C31.9718 14.656 32.5341 16.911 32.5341 19.4915C32.5341 22.0956 31.9541 24.3506 30.794 26.2564C29.6458 28.1622 28.0301 29.63 25.9467 30.6598C23.8752 31.6896 21.4545 32.2045 18.6847 32.2045H9.30966V24.5341H16.696C17.8561 24.5341 18.8445 24.3329 19.6612 23.9304C20.4898 23.5161 21.1231 22.9302 21.5611 22.1726C22.0109 21.415 22.2358 20.5213 22.2358 19.4915C22.2358 18.4498 22.0109 17.562 21.5611 16.8281C21.1231 16.0824 20.4898 15.5142 19.6612 15.1236C18.8445 14.7211 17.8561 14.5199 16.696 14.5199H13.2159V43H3.34375Z" fill="white"/>
</g>
<defs>
<clipPath id="clip0_1_13">
<rect width="163" height="48" fill="white"/>
</clipPath>
</defs>
</svg>
